<svg width="24" height="24" viewBox="0 0 24 24" fill="none" xmlns="http://www.w3.org/2000/svg">
<path fill-rule="evenodd" clip-rule="evenodd" d="M0.792893 0.292893C1.18342 -0.0976311 1.81658 -0.0976311 2.20711 0.292893L12.25 10.3358L22.2929 0.292893C22.6834 -0.0976311 23.3166 -0.0976311 23.7071 0.292893C24.0976 0.683417 24.0976 1.31658 23.7071 1.70711L13.6642 11.75L23.7071 21.7929C24.0976 22.1834 24.0976 22.8166 23.7071 23.2071C23.3166 23.5976 22.6834 23.5976 22.2929 23.2071L12.25 13.1642L2.20711 23.2071C1.81658 23.5976 1.18342 23.5976 0.792893 23.2071C0.402369 22.8166 0.402369 22.1834 0.792893 21.7929L10.8358 11.75L0.792893 1.70711C0.402369 1.31658 0.402369 0.683417 0.792893 0.292893Z" fill="#2194FF"/>
</svg>
