<svg width="35" height="76" viewBox="0 0 35 76" fill="none" xmlns="http://www.w3.org/2000/svg">
<path d="M21.457 76V44.8H35V37H0V44.8H13.6545V76H21.457Z" fill="#2194FF"/>
<path fill-rule="evenodd" clip-rule="evenodd" d="M20.7495 6.42341C19.6134 7.35991 19.3109 9.0497 19.8421 11.4928C19.7167 10.0654 20.3216 8.92521 21.6569 8.07231C22.545 7.27188 22.8479 5.73951 22.5658 3.47519C22.3288 4.82792 21.7234 5.81287 20.7495 6.43009V6.42341ZM13.984 28.4645C12.8187 27.2743 12.1486 25.712 12.1017 24.0756C12.0547 22.4393 12.6342 20.8436 13.7295 19.5931C14.8112 18.4369 14.9957 17.1714 14.2828 15.7964C15.347 16.3647 15.8648 17.7704 15.8362 20.0133C17.5782 16.5377 17.5077 13.6326 15.6246 11.298C16.3571 11.4847 17.0753 11.7201 17.7742 12.0024C17.5473 10.7288 17.0802 9.64691 16.3729 8.75666C14.9694 6.10724 15.0547 3.18837 16.6288 0C15.9566 2.06599 16.2968 4.02705 17.6497 5.88315C18.9665 7.76593 19.2778 9.92662 18.5834 12.3653C22.7885 14.4312 24.0486 18.1252 22.3638 23.4472C23.7111 22.5578 24.2058 20.9837 23.848 18.7247C25.6601 22.0233 25.8058 24.7167 24.2851 26.805C25.4298 25.4698 26.0715 23.7999 26.1055 22.0678C26.159 19.7981 25.6951 17.9923 24.714 16.6502C23.3501 15.0494 22.5367 13.7086 22.2739 12.6281C21.6782 8.66328 22.6243 5.82665 25.1123 4.11818C22.8991 6.6084 23.0375 9.93284 25.5273 14.0915C25.1179 11.7569 25.7099 10.3259 27.3034 9.79855C25.6988 10.4327 25.8538 13.5783 27.7682 19.2356C28.2949 21.5597 27.917 23.9895 26.7066 26.0624C25.4962 28.1354 23.5378 29.7067 21.204 30.4773C18.8702 31.2479 16.3241 31.164 14.0503 30.2416C11.7765 29.3192 9.93382 27.6227 8.87291 25.4749C7.38453 22.0687 7.7995 17.9642 10.1178 13.1617C11.6579 10.6403 12.4523 7.6761 12.5012 4.26894C12.2347 2.61918 11.6735 1.29491 10.8178 0.296154C13.4875 2.53557 14.914 4.98623 15.0976 7.64809C15.2885 10.0627 14.6549 12.2061 13.197 14.0782C11.2171 16.732 10.2525 19.7968 10.3032 23.2724C10.502 24.3385 10.9329 25.3518 11.5673 26.2456C12.2018 27.1394 13.0254 27.8934 13.984 28.4579V28.4645ZM20.4563 29.2649C22.3846 27.6587 22.5086 25.6381 20.8284 23.203C19.4525 21.3007 18.9513 19.5616 19.3248 17.9856C16.8792 19.257 16.9414 23.1203 17.6109 26.202C16.9027 25.679 15.626 23.1083 15.6744 21.8637C13.7295 24.8368 13.8826 27.3306 16.1336 29.345C17.5535 29.7007 19.0475 29.673 20.4521 29.2649H20.4563Z" fill="#2194FF"/>
</svg>
